<?xml version="1.0" encoding="UTF-8" standalone="no"?><!-- Generator: Gravit.io --><svg xmlns="http://www.w3.org/2000/svg" xmlns:xlink="http://www.w3.org/1999/xlink" style="isolation:isolate" viewBox="0 0 1024 1024" width="1024pt" height="1024pt"><defs><clipPath id="_clipPath_PVOGBvqZsxaxUNx2SLJnXLpxPDMZFEph"><rect width="1024" height="1024"/></clipPath></defs><g clip-path="url(#_clipPath_PVOGBvqZsxaxUNx2SLJnXLpxPDMZFEph)"><g><g><g><g><path d=" M 190.095 124.228 C 169.314 143.591 150.999 164.375 135.081 186.221 L 135.081 186.221 C 198.445 100.176 304.73 43.701 425.199 43.701 L 425.199 43.701 C 619.414 43.701 776.85 190.393 776.85 371.354 L 776.85 371.354 C 776.85 429.489 760.526 484.054 732.019 531.391 L 732.019 531.391 C 725.204 543.555 717.091 555.239 707.78 566.352 L 707.78 566.352 C 690.228 588.401 669.763 608.299 646.931 625.613 L 646.931 625.613 L 511.99 751.346 L 365.678 887.673 L 511.99 1024 L 833.886 724.082 C 1011.657 558.433 1011.657 289.877 833.886 124.228 L 833.886 124.228 C 744.995 41.403 628.488 0 511.99 0 L 511.99 0 C 395.483 0 278.986 41.403 190.095 124.228 Z " fill="none"/><linearGradient id="_lgradient_0" x1="0.8245849781461102" y1="0.2950414369736797" x2="0.350176865602518" y2="0.6578824835521742" gradientTransform="matrix(832.134,0,0,-1024,135.081,1024)" gradientUnits="userSpaceOnUse"><stop offset="0%" stop-opacity="1" style="stop-color:rgb(100,217,119)"/><stop offset="57.97686170938389%" stop-opacity="1" style="stop-color:rgb(0,199,154)"/><stop offset="98.26086956521739%" stop-opacity="1" style="stop-color:rgb(0,178,185)"/></linearGradient><path d=" M 190.095 124.228 C 169.314 143.591 150.999 164.375 135.081 186.221 L 135.081 186.221 C 198.445 100.176 304.73 43.701 425.199 43.701 L 425.199 43.701 C 619.414 43.701 776.85 190.393 776.85 371.354 L 776.85 371.354 C 776.85 429.489 760.526 484.054 732.019 531.391 L 732.019 531.391 C 725.204 543.555 717.091 555.239 707.78 566.352 L 707.78 566.352 C 690.228 588.401 669.763 608.299 646.931 625.613 L 646.931 625.613 L 511.99 751.346 L 365.678 887.673 L 511.99 1024 L 833.886 724.082 C 1011.657 558.433 1011.657 289.877 833.886 124.228 L 833.886 124.228 C 744.995 41.403 628.488 0 511.99 0 L 511.99 0 C 395.483 0 278.986 41.403 190.095 124.228 Z " fill="url(#_lgradient_0)"/><path d=" M 135.081 186.221 C 134.189 187.43 133.298 188.639 132.426 189.848 L 132.426 189.848 C 129.801 193.531 127.226 197.241 124.739 201.025 L 124.739 201.025 C 124.561 201.311 124.383 201.607 124.185 201.884 L 124.185 201.884 C 16.068 365.363 38.018 582.383 190.095 724.082 L 190.095 724.082 L 291.715 818.748 L 438.017 682.42 L 336.408 587.746 C 239.602 497.538 239.602 350.772 336.408 260.564 L 336.408 260.564 C 383.31 216.863 445.674 192.792 511.99 192.792 L 511.99 192.792 C 578.317 192.792 640.661 216.863 687.563 260.564 L 687.563 260.564 C 766.113 333.744 780.922 444.155 732.019 531.391 L 732.019 531.391 C 760.526 484.054 776.85 429.489 776.85 371.354 L 776.85 371.354 C 776.85 190.393 619.414 43.701 425.199 43.701 L 425.199 43.701 C 304.73 43.701 198.445 100.176 135.081 186.221" fill="none"/><linearGradient id="_lgradient_1" x1="0.3147330205865887" y1="0.8023782901823006" x2="0.857391782718651" y2="0.3260699990571447" gradientTransform="matrix(720.065,0,0,-775.047,56.786,818.748)" gradientUnits="userSpaceOnUse"><stop offset="0.43478260869565216%" stop-opacity="1" style="stop-color:rgb(58,0,95)"/><stop offset="45.65217391304348%" stop-opacity="1" style="stop-color:rgb(0,60,146)"/><stop offset="97.3913043478261%" stop-opacity="1" style="stop-color:rgb(71,163,234)"/></linearGradient><path d=" M 135.081 186.221 C 134.189 187.43 133.298 188.639 132.426 189.848 L 132.426 189.848 C 129.801 193.531 127.226 197.241 124.739 201.025 L 124.739 201.025 C 124.561 201.311 124.383 201.607 124.185 201.884 L 124.185 201.884 C 16.068 365.363 38.018 582.383 190.095 724.082 L 190.095 724.082 L 291.715 818.748 L 438.017 682.42 L 336.408 587.746 C 239.602 497.538 239.602 350.772 336.408 260.564 L 336.408 260.564 C 383.31 216.863 445.674 192.792 511.99 192.792 L 511.99 192.792 C 578.317 192.792 640.661 216.863 687.563 260.564 L 687.563 260.564 C 766.113 333.744 780.922 444.155 732.019 531.391 L 732.019 531.391 C 760.526 484.054 776.85 429.489 776.85 371.354 L 776.85 371.354 C 776.85 190.393 619.414 43.701 425.199 43.701 L 425.199 43.701 C 304.73 43.701 198.445 100.176 135.081 186.221" fill="url(#_lgradient_1)"/><path d=" M 379.565 365.096 C 368.967 384.598 363.023 406.628 363.023 429.988 L 363.023 429.988 C 363.023 509.812 432.549 574.474 518.231 574.474 L 518.231 574.474 C 603.902 574.474 673.428 509.812 673.428 429.988 L 673.428 429.988 C 673.428 406.508 667.475 384.468 656.758 364.847 L 656.758 364.847 C 631.301 317.648 578.832 285.372 518.231 285.372 L 518.231 285.372 C 457.62 285.372 405.022 317.768 379.565 365.096" fill="none"/><linearGradient id="_lgradient_2" x1="-0.30808758398699004" y1="1.3413339069543764" x2="0.9581033780773052" y2="-0.03270243812129281" gradientTransform="matrix(310.405,0,0,-289.101,363.023,574.474)" gradientUnits="userSpaceOnUse"><stop offset="0%" stop-opacity="1" style="stop-color:rgb(58,0,95)"/><stop offset="64.673020379195%" stop-opacity="1" style="stop-color:rgb(0,60,146)"/><stop offset="98.69565217391305%" stop-opacity="1" style="stop-color:rgb(0,103,181)"/></linearGradient><path d=" M 379.565 365.096 C 368.967 384.598 363.023 406.628 363.023 429.988 L 363.023 429.988 C 363.023 509.812 432.549 574.474 518.231 574.474 L 518.231 574.474 C 603.902 574.474 673.428 509.812 673.428 429.988 L 673.428 429.988 C 673.428 406.508 667.475 384.468 656.758 364.847 L 656.758 364.847 C 631.301 317.648 578.832 285.372 518.231 285.372 L 518.231 285.372 C 457.62 285.372 405.022 317.768 379.565 365.096" fill="url(#_lgradient_2)"/></g></g></g></g></g></svg>